<svg width="320" height="80" viewBox="0 0 320 80" fill="none" xmlns="http://www.w3.org/2000/svg">
<path fill-rule="evenodd" clip-rule="evenodd" d="M52.6309 60.4654C52.2653 63.3107 50.9777 65.9811 48.9431 67.9998L48.8478 68.0952C45.0011 71.9419 39.1038 73.0228 34.1286 70.8451L31.9827 69.9073C26.8644 73.1658 19.9498 72.5618 15.4991 68.1111L15.4514 68.0634C13.385 65.997 12.0816 63.3266 11.7001 60.4654C8.85483 60.0839 6.1685 58.7964 4.10209 56.7141L4.0703 56.6823C0.223602 52.8356 -0.857288 46.9384 1.32039 41.9631L2.25822 39.8172C-1.00035 34.683 -0.39632 27.7843 4.0703 23.3177L4.10209 23.2859C6.1685 21.2195 8.85483 19.9161 11.7001 19.5346C12.0816 16.6893 13.385 14.003 15.4514 11.9366L15.4832 11.9048C19.3299 8.05811 25.2271 6.97722 30.2183 9.1549L32.3483 10.0927C37.4825 6.83416 44.3811 7.43819 48.8319 11.8889L48.8795 11.9366C50.9618 14.003 52.2494 16.6893 52.6309 19.5346C55.492 19.9161 58.1625 21.2195 60.2289 23.2859L60.2607 23.3177C64.1074 27.1644 65.2042 33.0616 63.0106 38.0528L62.0728 40.1828C65.3313 45.317 64.7273 52.2156 60.2607 56.6823L60.2289 56.7141C58.1625 58.7805 55.492 60.0839 52.6309 60.4654ZM14.3546 22.1733C14.1003 19.1054 15.1812 16.0694 17.3907 13.8599L17.4066 13.844C20.4903 10.7603 25.1477 9.91788 29.1215 11.6505L29.8368 11.9684L25.9265 15.8787L25.6563 15.8469C23.9396 15.5925 22.1911 16.1489 20.9671 17.3728L20.9354 17.4205C18.869 19.4869 18.7895 22.8727 20.7446 25.0185L20.9354 25.2093L32.1734 36.4474L43.4115 25.2252C45.5415 23.0793 45.5415 19.5505 43.4115 17.4205L43.3797 17.3887C41.2338 15.2428 37.705 15.2428 35.5751 17.3887L26.3716 26.5922L22.811 23.0475L32.0304 13.844C36.1155 9.74303 42.8234 9.74303 46.9244 13.844L46.9562 13.8599C49.1498 16.0694 50.2466 19.1054 49.9922 22.1733C53.06 21.9348 56.0961 23.0157 58.3055 25.2252L58.3373 25.2411C61.4051 28.3248 62.2476 32.9822 60.515 36.956L60.1971 37.6713L56.2868 33.761L56.3345 33.4908C56.5729 31.7741 56.0166 30.0256 54.7767 28.8017L54.7609 28.7699C52.615 26.624 49.0862 26.624 46.9562 28.7699L35.7181 40.0079L46.9562 51.2301C49.0862 53.376 52.615 53.376 54.745 51.246L54.7767 51.2142C56.9226 49.0683 56.9226 45.5396 54.7767 43.4096L45.5733 34.1902L49.118 30.6455L58.3373 39.8649C62.4225 43.95 62.4225 50.6579 58.3373 54.7589L58.3055 54.7907C56.0961 56.9843 53.06 58.0811 49.9922 57.8267C50.2466 60.8946 49.1498 63.9306 46.9562 66.1241L46.9244 66.1718C43.8566 69.2397 39.1833 70.0821 35.2254 68.3495L34.4942 68.0316L38.4044 64.1213L38.6747 64.169C40.3914 64.4074 42.1399 63.8511 43.3638 62.6272L43.4115 62.5795C45.7958 60.1952 45.3508 57.2386 43.3956 54.7748L32.1734 43.5526L20.9354 54.7907C18.7895 56.9207 18.7895 60.4495 20.9354 62.5954L20.9671 62.6113C23.0971 64.7571 26.6259 64.7571 28.7559 62.6113L37.9753 53.4078L41.52 56.9525L32.3165 66.1718C28.2155 70.257 21.5076 70.257 17.4225 66.1718L17.3907 66.14C15.1812 63.9306 14.1003 60.8946 14.3388 57.8267C11.2709 58.0811 8.2349 56.9843 6.04133 54.7907L6.00954 54.7589C2.92583 51.6752 2.08337 47.0178 3.81597 43.0599L4.13388 42.3287L8.04416 46.239L8.01237 46.5092C7.75804 48.2259 8.31438 49.9744 9.55422 51.2142L9.58602 51.2301C11.6683 53.3283 15.0858 53.376 17.2317 51.3732L17.2476 51.3891L17.4066 51.2142L25.2589 43.3619L28.6288 40.0079L17.3907 28.7699C15.2448 26.624 11.716 26.624 9.58602 28.754L9.55422 28.8017C7.40834 30.9316 7.40834 34.4604 9.55422 36.5904L18.7577 45.8098L15.372 49.1955L15.213 49.3545L6.00954 40.151C1.90852 36.05 1.90852 29.3421 6.00954 25.2411L6.04133 25.2093C8.2349 23.0157 11.2709 21.9348 14.3546 22.1733ZM36.1473 51.3732L32.1734 47.4152L22.8587 56.7141C21.7778 57.7949 21.7937 59.5911 22.8746 60.6561L22.8905 60.6879C23.9714 61.7688 25.7676 61.7688 26.8326 60.6879L36.1473 51.3732ZM20.7923 43.9659L24.7662 40.0079L15.4514 30.6932C14.4023 29.6441 12.622 29.6123 11.5571 30.6614L11.4776 30.725C10.4126 31.8059 10.4126 33.5862 11.4776 34.6671L20.7923 43.9659ZM28.1996 28.6268L32.1734 32.5848L41.4723 23.2859C42.5532 22.2209 42.5532 20.4248 41.4882 19.3598L41.4405 19.3121C40.3755 18.2471 38.5793 18.2471 37.4984 19.3121L28.1996 28.6268ZM43.5546 36.0341L39.5807 40.0079L48.8795 49.3068C49.9604 50.3718 51.7407 50.3877 52.7739 49.3704L52.8534 49.275C53.9343 48.21 53.9343 46.4138 52.8534 45.3329L43.5546 36.0341Z" fill="#21B892"/>
<path fill-rule="evenodd" clip-rule="evenodd" d="M290.638 65.3849H298.117V28.4285H290.638V65.3849Z" fill="white"/>
<path fill-rule="evenodd" clip-rule="evenodd" d="M294.337 23.0801C295.725 23.0801 296.871 22.5975 297.836 21.6123C298.801 20.6673 299.304 19.5614 299.304 18.1941C299.304 16.8268 298.781 15.7009 297.836 14.7156C296.871 13.7304 295.725 13.2277 294.337 13.2277C292.97 13.2277 291.864 13.7505 290.919 14.7156C289.954 15.7009 289.451 16.8268 289.451 18.1941C289.451 19.5614 289.954 20.6673 290.899 21.6123C291.864 22.5774 292.97 23.0801 294.337 23.0801Z" fill="white"/>
<path fill-rule="evenodd" clip-rule="evenodd" d="M237.173 35.486V28.4285H230.136V21.3509H222.656V49.8021C222.656 58.0861 229.07 64.9425 237.173 65.6463V58.1062C233.192 57.4427 230.136 53.9441 230.136 49.8021V35.486H237.173Z" fill="white"/>
<path fill-rule="evenodd" clip-rule="evenodd" d="M207.737 65.3849H215.197V28.4285H207.737V65.3849Z" fill="white"/>
<path fill-rule="evenodd" clip-rule="evenodd" d="M211.417 23.0801C212.804 23.0801 213.95 22.5975 214.935 21.6123C215.88 20.6673 216.383 19.5614 216.383 18.1941C216.383 16.8268 215.88 15.7009 214.915 14.7156C213.95 13.7304 212.804 13.2277 211.417 13.2277C210.049 13.2277 208.963 13.7505 207.998 14.7156C207.053 15.7009 206.531 16.8268 206.531 18.1941C206.531 19.5614 207.033 20.6673 207.998 21.6123C208.943 22.5774 210.069 23.0801 211.417 23.0801Z" fill="white"/>
<path fill-rule="evenodd" clip-rule="evenodd" d="M192.798 46.9067C192.798 53.743 187.248 59.2925 180.392 59.2925C173.555 59.2925 168.006 53.743 168.006 46.9067C168.006 40.0502 173.555 34.5007 180.392 34.5007C187.248 34.5007 192.798 40.0502 192.798 46.9067ZM200.257 28.4285H192.798V31.3641C189.399 28.6496 185.077 27.021 180.392 27.021C169.413 27.021 160.526 35.9283 160.526 46.9067C160.526 57.885 169.413 66.7722 180.392 66.7722C184.031 66.7722 187.57 65.787 190.686 63.897L192.798 62.6302V65.3849H200.257V28.4285Z" fill="white"/>
<path fill-rule="evenodd" clip-rule="evenodd" d="M98.1345 65.3849H105.614V43.207C105.614 38.5825 109.414 34.7823 114.039 34.7823C118.664 34.7823 122.464 38.5825 122.464 43.207V65.3849H129.944V43.207C129.944 38.5825 133.744 34.7823 138.348 34.7823C142.973 34.7823 146.773 38.5825 146.773 43.207V65.3849H154.253V43.207C154.253 34.4606 147.095 27.3025 138.348 27.3025C134.146 27.3025 130.165 28.9714 127.169 31.9271L126.204 32.9123L125.218 31.9271C122.243 28.9714 118.241 27.3025 114.039 27.3025C105.293 27.3025 98.1345 34.4606 98.1345 43.207V65.3849Z" fill="white"/>
<path fill-rule="evenodd" clip-rule="evenodd" d="M275.698 46.9067C275.698 53.743 270.149 59.2925 263.312 59.2925C256.456 59.2925 250.906 53.743 250.906 46.9067C250.906 40.0502 256.456 34.5007 263.312 34.5007C270.149 34.5007 275.698 40.0502 275.698 46.9067ZM283.178 28.4285H275.698V31.3641C272.3 28.6496 267.997 27.021 263.312 27.021C252.334 27.021 243.447 35.9283 243.447 46.9067C243.447 57.885 252.334 66.7722 263.312 66.7722C266.952 66.7722 270.49 65.787 273.587 63.897L275.698 62.6302V65.3849H283.178V28.4285Z" fill="white"/>
</svg>
