<svg width="320" height="80" viewBox="0 0 320 80" fill="none" xmlns="http://www.w3.org/2000/svg">
<path fill-rule="evenodd" clip-rule="evenodd" d="M53.1308 60.4654C52.7652 63.3107 51.4777 65.9811 49.4431 67.9998L49.3477 68.0952C45.501 71.9419 39.6038 73.0228 34.6285 70.8451L32.4826 69.9073C27.3643 73.1658 20.4498 72.5618 15.9991 68.1111L15.9514 68.0634C13.885 65.997 12.5815 63.3266 12.2 60.4654C9.35476 60.0839 6.66844 58.7964 4.60203 56.7141L4.57024 56.6823C0.723541 52.8356 -0.357349 46.9384 1.82033 41.9631L2.75816 39.8172C-0.500408 34.683 0.103619 27.7843 4.57024 23.3177L4.60203 23.2859C6.66844 21.2195 9.35476 19.9161 12.2 19.5346C12.5815 16.6893 13.885 14.003 15.9514 11.9366L15.9832 11.9048C19.8299 8.05811 25.7271 6.97722 30.7182 9.1549L32.8482 10.0927C37.9825 6.83416 44.8811 7.43819 49.3318 11.8889L49.3795 11.9366C51.4618 14.003 52.7493 16.6893 53.1308 19.5346C55.992 19.9161 58.6624 21.2195 60.7288 23.2859L60.7606 23.3177C64.6073 27.1644 65.7041 33.0616 63.5105 38.0528L62.5727 40.1828C65.8313 45.317 65.2272 52.2156 60.7606 56.6823L60.7288 56.7141C58.6624 58.7805 55.992 60.0839 53.1308 60.4654ZM14.8546 22.1733C14.6003 19.1054 15.6811 16.0694 17.8906 13.8599L17.9065 13.844C20.9902 10.7603 25.6476 9.91788 29.6215 11.6505L30.3367 11.9684L26.4265 15.8787L26.1562 15.8469C24.4395 15.5925 22.691 16.1489 21.4671 17.3728L21.4353 17.4205C19.3689 19.4869 19.2894 22.8727 21.2446 25.0185L21.4353 25.2093L32.6734 36.4474L43.9114 25.2252C46.0414 23.0793 46.0414 19.5505 43.9114 17.4205L43.8797 17.3887C41.7338 15.2428 38.205 15.2428 36.075 17.3887L26.8715 26.5922L23.311 23.0475L32.5303 13.844C36.6154 9.74303 43.3233 9.74303 47.4243 13.844L47.4561 13.8599C49.6497 16.0694 50.7465 19.1054 50.4922 22.1733C53.56 21.9348 56.596 23.0157 58.8055 25.2252L58.8373 25.2411C61.9051 28.3248 62.7475 32.9822 61.0149 36.956L60.697 37.6713L56.7868 33.761L56.8344 33.4908C57.0729 31.7741 56.5165 30.0256 55.2767 28.8017L55.2608 28.7699C53.1149 26.624 49.5861 26.624 47.4561 28.7699L36.2181 40.0079L47.4561 51.2301C49.5861 53.376 53.1149 53.376 55.2449 51.246L55.2767 51.2142C57.4226 49.0683 57.4226 45.5396 55.2767 43.4096L46.0732 34.1902L49.6179 30.6455L58.8373 39.8649C62.9224 43.95 62.9224 50.6579 58.8373 54.7589L58.8055 54.7907C56.596 56.9843 53.56 58.0811 50.4922 57.8267C50.7465 60.8946 49.6497 63.9306 47.4561 66.1241L47.4243 66.1718C44.3565 69.2397 39.6833 70.0821 35.7253 68.3495L34.9941 68.0316L38.9044 64.1213L39.1746 64.169C40.8913 64.4074 42.6398 63.8511 43.8638 62.6272L43.9114 62.5795C46.2958 60.1952 45.8507 57.2386 43.8956 54.7748L32.6734 43.5526L21.4353 54.7907C19.2894 56.9207 19.2894 60.4495 21.4353 62.5954L21.4671 62.6113C23.5971 64.7571 27.1259 64.7571 29.2559 62.6113L38.4752 53.4078L42.0199 56.9525L32.8164 66.1718C28.7154 70.257 22.0075 70.257 17.9224 66.1718L17.8906 66.14C15.6811 63.9306 14.6003 60.8946 14.8387 57.8267C11.7709 58.0811 8.73484 56.9843 6.54127 54.7907L6.50948 54.7589C3.42577 51.6752 2.58331 47.0178 4.31591 43.0599L4.63382 42.3287L8.5441 46.239L8.51231 46.5092C8.25798 48.2259 8.81432 49.9744 10.0542 51.2142L10.086 51.2301C12.1683 53.3283 15.5858 53.376 17.7317 51.3732L17.7476 51.3891L17.9065 51.2142L25.7589 43.3619L29.1287 40.0079L17.8906 28.7699C15.7447 26.624 12.2159 26.624 10.086 28.754L10.0542 28.8017C7.90828 30.9316 7.90828 34.4604 10.0542 36.5904L19.2576 45.8098L15.8719 49.1955L15.7129 49.3545L6.50948 40.151C2.40846 36.05 2.40846 29.3421 6.50948 25.2411L6.54127 25.2093C8.73484 23.0157 11.7709 21.9348 14.8546 22.1733ZM36.6472 51.3732L32.6734 47.4152L23.3586 56.7141C22.2778 57.7949 22.2937 59.5911 23.3745 60.6561L23.3904 60.6879C24.4713 61.7688 26.2675 61.7688 27.3325 60.6879L36.6472 51.3732ZM21.2922 43.9659L25.2661 40.0079L15.9514 30.6932C14.9023 29.6441 13.122 29.6123 12.057 30.6614L11.9775 30.725C10.9125 31.8059 10.9125 33.5862 11.9775 34.6671L21.2922 43.9659ZM28.6995 28.6268L32.6734 32.5848L41.9722 23.2859C43.0531 22.2209 43.0531 20.4248 41.9881 19.3598L41.9404 19.3121C40.8754 18.2471 39.0792 18.2471 37.9983 19.3121L28.6995 28.6268ZM44.0545 36.0341L40.0807 40.0079L49.3795 49.3068C50.4604 50.3718 52.2407 50.3877 53.2739 49.3704L53.3533 49.275C54.4342 48.21 54.4342 46.4138 53.3533 45.3329L44.0545 36.0341Z" fill="#21B892"/>
<path fill-rule="evenodd" clip-rule="evenodd" d="M291.137 65.3849H298.617V28.4285H291.137V65.3849Z" fill="black"/>
<path fill-rule="evenodd" clip-rule="evenodd" d="M294.837 23.0801C296.224 23.0801 297.371 22.5975 298.336 21.6123C299.301 20.6673 299.803 19.5614 299.803 18.1941C299.803 16.8269 299.281 15.7009 298.336 14.7156C297.371 13.7304 296.224 13.2277 294.837 13.2277C293.47 13.2277 292.364 13.7505 291.419 14.7156C290.454 15.7009 289.951 16.8269 289.951 18.1941C289.951 19.5614 290.454 20.6673 291.399 21.6123C292.364 22.5774 293.47 23.0801 294.837 23.0801Z" fill="black"/>
<path fill-rule="evenodd" clip-rule="evenodd" d="M237.673 35.486V28.4285H230.636V21.3509H223.156V49.8021C223.156 58.0861 229.57 64.9425 237.673 65.6463V58.1062C233.692 57.4427 230.636 53.9441 230.636 49.8021V35.486H237.673Z" fill="black"/>
<path fill-rule="evenodd" clip-rule="evenodd" d="M208.237 65.3849H215.696V28.4285H208.237V65.3849Z" fill="black"/>
<path fill-rule="evenodd" clip-rule="evenodd" d="M211.916 23.0801C213.304 23.0801 214.45 22.5975 215.435 21.6123C216.38 20.6673 216.883 19.5614 216.883 18.1941C216.883 16.8269 216.38 15.7009 215.415 14.7156C214.45 13.7304 213.304 13.2277 211.916 13.2277C210.549 13.2277 209.463 13.7505 208.498 14.7156C207.553 15.7009 207.03 16.8269 207.03 18.1941C207.03 19.5614 207.533 20.6673 208.498 21.6123C209.443 22.5774 210.569 23.0801 211.916 23.0801Z" fill="black"/>
<path fill-rule="evenodd" clip-rule="evenodd" d="M193.297 46.9067C193.297 53.743 187.748 59.2925 180.891 59.2925C174.055 59.2925 168.506 53.743 168.506 46.9067C168.506 40.0502 174.055 34.5008 180.891 34.5008C187.748 34.5008 193.297 40.0502 193.297 46.9067ZM200.757 28.4285H193.297V31.3641C189.899 28.6497 185.576 27.021 180.891 27.021C169.913 27.021 161.026 35.9283 161.026 46.9067C161.026 57.885 169.913 66.7723 180.891 66.7723C184.531 66.7723 188.07 65.787 191.186 63.897L193.297 62.6302V65.3849H200.757V28.4285Z" fill="black"/>
<path fill-rule="evenodd" clip-rule="evenodd" d="M98.6344 65.3849H106.114V43.2071C106.114 38.5825 109.914 34.7823 114.539 34.7823C119.163 34.7823 122.964 38.5825 122.964 43.2071V65.3849H130.443V43.2071C130.443 38.5825 134.244 34.7823 138.848 34.7823C143.473 34.7823 147.273 38.5825 147.273 43.2071V65.3849H154.753V43.2071C154.753 34.4606 147.595 27.3025 138.848 27.3025C134.646 27.3025 130.665 28.9714 127.669 31.9271L126.704 32.9123L125.718 31.9271C122.743 28.9714 118.741 27.3025 114.539 27.3025C105.792 27.3025 98.6344 34.4606 98.6344 43.2071V65.3849Z" fill="black"/>
<path fill-rule="evenodd" clip-rule="evenodd" d="M276.198 46.9067C276.198 53.743 270.649 59.2925 263.812 59.2925C256.956 59.2925 251.406 53.743 251.406 46.9067C251.406 40.0502 256.956 34.5008 263.812 34.5008C270.649 34.5008 276.198 40.0502 276.198 46.9067ZM283.678 28.4285H276.198V31.3641C272.8 28.6497 268.497 27.021 263.812 27.021C252.834 27.021 243.947 35.9283 243.947 46.9067C243.947 57.885 252.834 66.7723 263.812 66.7723C267.452 66.7723 270.99 65.787 274.087 63.897L276.198 62.6302V65.3849H283.678V28.4285Z" fill="black"/>
</svg>
