<svg width="609" height="130" viewBox="0 0 609 130" fill="none" xmlns="http://www.w3.org/2000/svg">
<path fill-rule="evenodd" clip-rule="evenodd" d="M43.469 0.819594C34.8547 2.93163 26.9591 10.3267 24.3026 18.7729C23.0554 22.7407 22.9112 22.8888 19.1036 24.088C4.03707 28.8385 -4.32297 46.9179 2.28738 60.4589C4.03506 64.0384 4.03907 64.1045 2.73582 67.5017C-3.56224 83.9075 2.99406 99.2723 18.6872 104.89C22.7611 106.349 23.4638 106.876 23.8701 108.773C27.1333 124.022 46.1716 133.455 60.6595 126.999L64.5052 125.285L68.8154 126.971C84.2102 132.987 102.402 123.928 105.711 108.597C106.161 106.509 106.684 106.091 110.079 105.104C125.256 100.692 133.544 82.6363 127.051 68.1323L125.466 64.5929L127.077 61.0896C129.49 55.8365 129.444 43.4666 126.991 38.5179C123.416 31.2969 113.098 23.107 107.581 23.107C106.79 23.107 105.979 21.7057 105.116 18.8429C100.634 3.98465 83.8578 -3.95099 69.452 1.97271L65.0357 3.78845L59.9548 1.95469C54.7799 0.0888943 48.2756 -0.35954 43.469 0.819594ZM55.933 6.84739C59.2422 7.76628 59.2321 7.84837 55.2283 12.1685C52.6798 14.9192 51.5908 15.5458 48.8081 15.8581C40.9305 16.7469 36.5483 24.2481 39.6854 31.4711C40.2559 32.7843 46.1896 39.2886 52.874 45.925L65.0257 57.9946L77.3656 45.5186C90.4702 32.2698 90.9747 31.4811 90.3661 25.155C89.7955 19.2233 85.6776 15.6919 79.3275 15.6919H74.721L63.8826 26.4442L53.0462 37.1946L49.761 33.8474L46.4759 30.5001L56.8358 20.1122C67.9145 9.00148 70.9694 6.9475 77.4116 6.28286C89.1229 5.0757 100.19 14.755 100.19 26.204C100.19 29.0127 100.218 29.0387 103.128 29.0387C116.964 29.0387 129.255 49.1881 121.194 58.6512C120.197 59.8223 113.536 51.5023 113.532 49.086C113.524 40.4797 102.492 35.4809 95.2968 40.8241C93.7053 42.0052 87.6455 47.7687 81.8299 53.6324L71.2537 64.2946L84.054 77.0049C94.7823 87.6571 97.3028 89.7992 99.633 90.2296C107.348 91.657 113.536 86.9004 113.536 79.5433C113.536 74.6146 112.341 72.8288 102.203 62.591L92.4501 52.7395L95.8113 49.3763L99.1746 46.013L109.607 56.7194C118.481 65.8261 120.285 68.0743 121.68 71.7739C126.575 84.7383 118.087 98.3054 104.037 99.969L100.19 100.425L100.182 103.472C100.152 116.094 84.2702 126.587 72.4429 121.796L70.2768 120.919L73.8102 117.33C76.695 114.403 77.9341 113.674 80.5427 113.38C86.6045 112.697 90.8245 107.943 90.7324 101.897C90.6644 97.4305 89.1249 95.3785 76.1284 82.4321L64.5993 70.9491L53.7669 81.6914C41.417 93.9352 38.6484 97.6467 38.6484 101.967C38.6484 106.287 41.5892 110.871 45.3168 112.363C52.0332 115.051 54.0051 114.067 66.1848 101.943L76.2966 91.8772L79.7579 95.0683L83.2212 98.2613L72.6491 108.851C60.5134 121.009 57.6967 122.717 49.7711 122.723C39.317 122.731 30.7688 114.923 29.3274 104.049C28.8569 100.511 28.6668 100.217 26.825 100.217C13.5282 100.217 3.06013 85.2668 7.43434 72.5226L8.41528 69.6658L12.0388 73.2372C14.9676 76.12 15.6643 77.2912 15.6643 79.3291C15.6643 87.2047 24.9912 92.9082 32.2442 89.4648C33.5354 88.8543 39.9216 83.0146 46.4358 76.4904L58.2792 64.629L46.4258 52.7155C30.3544 36.562 24.4947 34.524 17.9725 42.816C12.9637 49.1841 14.5952 53.4022 26.849 65.7721L37.1649 76.1841L33.8177 79.4673L30.4725 82.7524L20.4469 72.7628C8.56142 60.9214 6.4614 57.4741 6.4614 49.7987C6.4614 38.632 15.5521 29.0387 26.1363 29.0387C28.7929 29.0387 29.0091 28.8806 29.0091 26.9487C29.0091 13.4838 42.7883 3.19588 55.933 6.84739ZM82.9029 23.2352C86.4503 26.5684 85.5495 28.3481 74.8171 39.1845L65.0157 49.084L61.2941 45.3644L57.5746 41.6449L67.5642 31.6352C78.2845 20.8929 79.6258 20.1582 82.9029 23.2352ZM39.337 54.6033L49.4007 64.599L45.6831 68.3205L41.9655 72.0441L32.028 62.0845C21.1355 51.17 20.0304 49.012 23.7781 45.977C27.2274 43.1843 28.6107 43.9511 39.337 54.6033ZM97.8153 67.0993C108.52 77.9097 109.254 79.3591 105.785 82.8285C102.534 86.0776 101.317 85.427 90.6223 74.7086L80.7028 64.7711L83.8899 60.9915C87.8937 56.2429 86.4283 55.6003 97.8153 67.0993ZM68.6272 83.8554L72.2287 87.511L63.4102 96.3294C51.2164 108.519 48.702 109.734 45.569 104.952C43.5651 101.893 44.9304 99.6286 54.7979 89.655C65.7084 78.6304 64.1309 79.2911 68.6272 83.8554Z" fill="#24BB94"/>
<path fill-rule="evenodd" clip-rule="evenodd" d="M426.8 11.0234C420.135 12.7931 417.09 21.7417 421.324 27.1249C427.372 34.8123 439.782 30.8045 439.772 21.1652C439.766 14.5869 433.078 9.35583 426.8 11.0234ZM595.216 11.2417C589.21 13.1075 586.447 19.8419 589.258 25.7636C592.491 32.5782 602.721 33.0366 606.967 26.5564C612.108 18.7128 604.228 8.44297 595.216 11.2417ZM452.38 59.3039C452.38 86.1897 452.56 91.669 453.563 95.0783C456.578 105.344 464.482 113.43 474.57 116.571C482.345 118.991 482.039 119.262 482.039 109.951V101.887L479.999 101.478C470.614 99.5966 467.967 93.2465 467.957 72.5986L467.951 56.4731H474.994H482.039V49.058V41.6429H474.994H467.951V34.6001V27.5553H460.166H452.38V59.3039ZM358.586 39.3867C327.716 46.0972 315.431 81.6394 335.474 106.247C347.507 121.017 371.176 124.623 388.058 114.257L391.582 112.095V114.683V117.272H399.365H407.151V79.4572V41.6429H399.365H391.582V44.2374C391.582 47.3284 391.564 47.3324 388.042 45.0101C380.653 40.1394 367.062 37.5429 358.586 39.3867ZM525.785 39.8011C494.743 47.4124 483.933 85.8394 506.486 108.393C519.233 121.141 538.073 123.996 554.15 115.616C556.697 114.289 559.029 113.09 559.335 112.951C559.641 112.813 559.892 113.728 559.892 114.985V117.272H568.047H576.203V79.4572V41.6429H568.047H559.892V44.2074V46.7718L554.408 43.815C545.55 39.0364 534.958 37.5509 525.785 39.8011ZM222.715 40.5638C213.611 43.0162 205.719 49.6966 201.563 58.4731L199.173 63.5159L198.955 90.3938L198.734 117.272H206.554H214.373L214.377 93.731C214.381 66.3146 214.478 65.7421 219.861 60.489C227.036 53.4903 236.695 53.5644 243.435 60.6672C247.932 65.4037 248.088 66.4387 248.34 92.9883L248.572 117.272H256.312H264.051V92.9482V68.6268L266.005 64.7051C272.197 52.2771 289.269 52.2771 295.463 64.7051L297.415 68.6268V92.9482V117.272H305.573H313.729L313.723 94.4717C313.717 69.1513 313.198 64.1545 309.877 57.408C300.44 38.2296 272.768 33.2809 258.556 48.2292L256.4 50.4994L253.645 48.011C245.289 40.4617 233.57 37.641 222.715 40.5638ZM421.981 79.4572V117.272H429.766H437.55V79.4572V41.6429H429.766H421.981V79.4572ZM590.291 79.4332V117.272H598.453H606.617L606.424 79.6434L606.232 42.0132L598.261 41.803L590.291 41.5928V79.4332ZM377.004 57.0857C392.517 63.9463 395.774 86.6441 382.875 97.9951C366.542 112.375 341.81 101.296 341.67 79.5373C341.554 61.3758 360.086 49.6005 377.004 57.0857ZM545.95 57.1858C557.976 62.8393 563.155 78.3922 557.107 90.69C545.544 114.197 510.56 105.749 510.592 79.4572C510.612 61.0375 529.214 49.3203 545.95 57.1858Z" fill="#040404"/>
</svg>
